<svg id="Layer_1" data-name="Layer 1" xmlns="http://www.w3.org/2000/svg" width="423" height="141" viewBox="0 0 423 141"><title>BISTRO BABUSHKA</title><path d="M10.89,52.21h7.36c6.26,0,9.75,2.4,9.75,7.36,0,3.22-1.79,5.71-5.38,6.63v.18c4.51.65,7.32,3.13,7.32,7.36,0,5.8-4.05,8.84-11.14,8.84H10.89Zm6.44,13.53c6.63,0,9.2-2.12,9.2-6.17,0-4.32-2.85-6.07-8.92-6.07H12.36V65.74Zm.92,15.55c6.53,0,10.21-2.3,10.21-7.46,0-4.6-3.68-6.8-10.21-6.8H12.36V81.29Z"/><path d="M38.12,81.29H46V53.5H38.12V52.21h17.3V53.5H47.51V81.29h7.91v1.29H38.12Z"/><path d="M64.25,78.53l1-1a12.79,12.79,0,0,0,9.57,4.23c5.15,0,8.47-2.67,8.47-6.54,0-4-2.81-5.33-6.08-6.71l-4.69-2.12c-2.76-1.15-6.62-2.94-6.62-7.45,0-4.32,3.86-7.27,9-7.27a12.19,12.19,0,0,1,8.74,3.59l-.92,1A10.56,10.56,0,0,0,74.92,53c-4.51,0-7.54,2.3-7.54,5.8,0,3.77,3.45,5.2,5.79,6.16l4.7,2.12c3.59,1.52,6.9,3.31,6.9,8s-4,8-9.94,8A13.76,13.76,0,0,1,64.25,78.53Z"/><path d="M101.23,53.5H90.47V52.21h23V53.5H102.71V82.58h-1.48Z"/><path d="M121.47,52.21h8.38c6,0,9.75,2.21,9.75,7.82,0,4.83-3.13,7.64-8.19,8.1l8.65,14.45h-1.75l-8.56-14.36H123V82.58h-1.48Zm7.82,14.72c5.62,0,8.75-2.2,8.75-6.9s-3.13-6.53-8.75-6.53H123V66.93Z"/><path d="M145.94,67.3c0-9.57,4.7-15.64,11.23-15.64s11.22,6.07,11.22,15.64-4.69,15.83-11.22,15.83S145.94,76.87,145.94,67.3Zm20.89,0c0-8.74-3.91-14.26-9.66-14.26s-9.66,5.52-9.66,14.26,3.91,14.45,9.66,14.45S166.83,76,166.83,67.3Z"/><path d="M204.09,52.21h7.36c6.26,0,9.75,2.4,9.75,7.36,0,3.22-1.79,5.71-5.38,6.63v.18c4.51.65,7.31,3.13,7.31,7.36,0,5.8-4,8.84-11.13,8.84h-7.91Zm6.44,13.53c6.62,0,9.2-2.12,9.2-6.17,0-4.32-2.85-6.07-8.93-6.07h-5.24V65.74Zm.92,15.55c6.53,0,10.21-2.3,10.21-7.46,0-4.6-3.68-6.8-10.21-6.8h-5.89V81.29Z"/><path d="M239.32,52.21h1.29l10.86,30.37h-1.56l-3.78-10.86H233.76l-3.82,10.86h-1.47Zm-5.1,18.22h11.45l-2.11-6.07c-1.29-3.68-2.39-6.81-3.5-10.58h-.18c-1.11,3.77-2.21,6.9-3.5,10.58Z"/><path d="M259.29,52.21h7.36c6.25,0,9.75,2.4,9.75,7.36,0,3.22-1.79,5.71-5.38,6.63v.18c4.51.65,7.31,3.13,7.31,7.36,0,5.8-4,8.84-11.13,8.84h-7.91Zm6.44,13.53c6.62,0,9.2-2.12,9.2-6.17,0-4.32-2.85-6.07-8.93-6.07h-5.24V65.74Zm.92,15.55c6.53,0,10.21-2.3,10.21-7.46,0-4.6-3.68-6.8-10.21-6.8h-5.89V81.29Z"/><path d="M285.6,71.26V52.21h1.47V70.89c0,8.37,3.87,10.86,8.1,10.86s8.19-2.49,8.19-10.86V52.21h1.38V71.26c0,9.38-4.79,11.87-9.57,11.87S285.6,80.64,285.6,71.26Z"/><path d="M312.65,78.53l1-1a12.77,12.77,0,0,0,9.57,4.23c5.15,0,8.46-2.67,8.46-6.54,0-4-2.8-5.33-6.07-6.71l-4.69-2.12c-2.76-1.15-6.63-2.94-6.63-7.45,0-4.32,3.87-7.27,9-7.27a12.21,12.21,0,0,1,8.74,3.59l-.92,1A10.58,10.58,0,0,0,323.32,53c-4.51,0-7.55,2.3-7.55,5.8,0,3.77,3.45,5.2,5.8,6.16l4.69,2.12c3.59,1.52,6.91,3.31,6.91,8s-4,8-9.94,8A13.76,13.76,0,0,1,312.65,78.53Z"/><path d="M340.8,52.21h1.47V65.74h16.19V52.21h1.48V82.58h-1.48V67H342.27V82.58H340.8Z"/><path d="M369.78,52.21h1.47V69.69h.09l15.83-17.48H389l-10,11L390.3,82.58h-1.75L377.92,64.4l-6.67,7.41V82.58h-1.47Z"/><path d="M404.92,52.21h1.29l10.86,30.37H415.5l-3.77-10.86H399.36l-3.82,10.86h-1.48Zm-5.1,18.22h11.45l-2.12-6.07c-1.28-3.68-2.39-6.81-3.49-10.58h-.19c-1.1,3.77-2.2,6.9-3.49,10.58Z"/></svg>
