<svg id="Layer_1" data-name="Layer 1" xmlns="http://www.w3.org/2000/svg" width="229.99" height="30.58" viewBox="0 0 229.99 30.58"><title>Artboard 29</title><path d="M3,6.68H7c3.4,0,5.3,1.3,5.3,4a3.55,3.55,0,0,1-2.93,3.6v.1c2.45.35,4,1.7,4,4,0,3.15-2.2,4.8-6,4.8H3ZM6.5,14c3.6,0,5-1.15,5-3.35S10,7.38,6.65,7.38H3.8V14ZM7,22.48c3.55,0,5.55-1.25,5.55-4.05,0-2.5-2-3.7-5.55-3.7H3.8v7.75Z"/><path d="M17.8,22.48h4.3V7.38H17.8v-.7h9.4v.7H22.9v15.1h4.3v.7H17.8Z"/><path d="M32,21l.55-.55a6.93,6.93,0,0,0,5.2,2.3c2.8,0,4.6-1.45,4.6-3.55s-1.53-2.9-3.3-3.65L36.5,14.38c-1.5-.62-3.6-1.6-3.6-4.05S35,6.38,37.8,6.38a6.66,6.66,0,0,1,4.75,2l-.5.55A5.74,5.74,0,0,0,37.8,7.13c-2.45,0-4.1,1.25-4.1,3.15,0,2.05,1.87,2.83,3.15,3.35l2.55,1.15c2,.83,3.75,1.8,3.75,4.35s-2.15,4.35-5.4,4.35A7.48,7.48,0,0,1,32,21Z"/><path d="M52.1,7.38H46.25v-.7h12.5v.7H52.9v15.8h-.8Z"/><path d="M63.1,6.68h4.55c3.25,0,5.3,1.2,5.3,4.25,0,2.63-1.7,4.15-4.45,4.4l4.7,7.85h-1l-4.65-7.8H63.9v7.8h-.8Zm4.25,8c3.05,0,4.75-1.2,4.75-3.75s-1.7-3.55-4.75-3.55H63.9v7.3Z"/><path d="M76.4,14.88c0-5.2,2.55-8.5,6.1-8.5s6.1,3.3,6.1,8.5-2.55,8.6-6.1,8.6S76.4,20.08,76.4,14.88Zm11.35,0c0-4.75-2.13-7.75-5.25-7.75s-5.25,3-5.25,7.75,2.12,7.85,5.25,7.85S87.75,19.63,87.75,14.88Z"/><path d="M108,6.68h4c3.4,0,5.29,1.3,5.29,4a3.54,3.54,0,0,1-2.92,3.6v.1c2.45.35,4,1.7,4,4,0,3.15-2.19,4.8-6,4.8H108ZM111.5,14c3.6,0,5-1.15,5-3.35s-1.55-3.3-4.85-3.3H108.8V14Zm.5,8.45c3.55,0,5.54-1.25,5.54-4.05,0-2.5-2-3.7-5.54-3.7h-3.2v7.75Z"/><path d="M127.15,6.68h.7l5.9,16.5h-.86l-2-5.9h-6.73l-2.07,5.9h-.8Zm-2.78,9.9h6.23l-1.15-3.3c-.7-2-1.3-3.7-1.9-5.75h-.1c-.6,2.05-1.2,3.75-1.9,5.75Z"/><path d="M138,6.68h4c3.4,0,5.29,1.3,5.29,4a3.54,3.54,0,0,1-2.92,3.6v.1c2.45.35,4,1.7,4,4,0,3.15-2.19,4.8-6,4.8H138ZM141.5,14c3.6,0,5-1.15,5-3.35s-1.55-3.3-4.85-3.3H138.8V14Zm.5,8.45c3.55,0,5.54-1.25,5.54-4.05,0-2.5-2-3.7-5.54-3.7h-3.2v7.75Z"/><path d="M152.3,17V6.68h.8V16.83c0,4.55,2.1,5.9,4.4,5.9s4.45-1.35,4.45-5.9V6.68h.75V17c0,5.1-2.6,6.45-5.2,6.45S152.3,22.13,152.3,17Z"/><path d="M167,21l.55-.55a6.93,6.93,0,0,0,5.2,2.3c2.79,0,4.59-1.45,4.59-3.55s-1.52-2.9-3.3-3.65l-2.54-1.15c-1.5-.62-3.6-1.6-3.6-4.05s2.1-3.95,4.89-3.95a6.66,6.66,0,0,1,4.75,2l-.5.55a5.74,5.74,0,0,0-4.25-1.75c-2.44,0-4.09,1.25-4.09,3.15,0,2.05,1.87,2.83,3.15,3.35l2.54,1.15c2,.83,3.75,1.8,3.75,4.35s-2.15,4.35-5.39,4.35A7.48,7.48,0,0,1,167,21Z"/><path d="M182.3,6.68h.8V14h8.79V6.68h.8v16.5h-.8V14.73H183.1v8.45h-.8Z"/><path d="M198.05,6.68h.8v9.5h.05l8.59-9.5h1l-5.43,6,6.15,10.5h-.95l-5.77-9.87-3.62,4v5.85h-.8Z"/><path d="M217.15,6.68h.69l5.9,16.5h-.85l-2-5.9h-6.72l-2.07,5.9h-.8Zm-2.78,9.9h6.22l-1.15-3.3c-.69-2-1.29-3.7-1.9-5.75h-.09c-.6,2.05-1.2,3.75-1.9,5.75Z"/></svg>